<svg width="63" height="17" viewBox="0 0 63 17" fill="none" xmlns="http://www.w3.org/2000/svg">
<rect width="63" height="17" rx="8.5" fill="#FFECE5"/>
<path d="M9.86316 13H8.63916L11.8072 4.324H13.1152L16.2952 13H15.0592L14.2792 10.84H10.6312L9.86316 13ZM12.3112 6.196L10.9912 9.82H13.9312L12.5992 6.196C12.5392 6.028 12.4792 5.824 12.4552 5.692C12.4312 5.812 12.3712 6.016 12.3112 6.196ZM18.1635 13L16.2435 7.132H17.4075L18.3795 10.18C18.5115 10.612 18.6315 11.056 18.7395 11.572C18.8355 11.056 18.9915 10.564 19.1235 10.18L20.1075 7.132H21.2595L22.2315 10.18C22.3275 10.468 22.5195 11.152 22.6155 11.572C22.7115 11.104 22.8195 10.696 22.9875 10.18L23.9715 7.132H25.1475L23.1435 13H22.0755L21.0555 9.856C20.8635 9.268 20.7435 8.812 20.6835 8.488C20.6235 8.776 20.5155 9.16 20.2995 9.868L19.2795 13H18.1635ZM27.5009 13.144C26.2409 13.144 25.4969 12.436 25.4969 11.368C25.4969 10.288 26.3009 9.616 27.6809 9.508L29.5289 9.364V9.196C29.5289 8.212 28.9409 7.864 28.1489 7.864C27.2009 7.864 26.6609 8.284 26.6609 8.992H25.6769C25.6769 7.768 26.6849 6.964 28.1969 6.964C29.6489 6.964 30.6329 7.732 30.6329 9.316V13H29.6729L29.5529 12.052C29.2529 12.724 28.4489 13.144 27.5009 13.144ZM27.8249 12.268C28.8929 12.268 29.5409 11.572 29.5409 10.468V10.156L28.0409 10.276C27.0449 10.372 26.6369 10.756 26.6369 11.332C26.6369 11.956 27.0929 12.268 27.8249 12.268ZM32.6871 5.74C32.2791 5.74 31.9431 5.404 31.9431 4.996C31.9431 4.576 32.2791 4.252 32.6871 4.252C33.0951 4.252 33.4311 4.576 33.4311 4.996C33.4311 5.404 33.0951 5.74 32.6871 5.74ZM32.1351 13V7.132H33.2631V13H32.1351ZM36.4967 13H35.3687V8.08H34.2167V7.132H35.3687V5.296H36.4967V7.132H37.6487V8.08H36.4967V13ZM39.153 5.74C38.745 5.74 38.409 5.404 38.409 4.996C38.409 4.576 38.745 4.252 39.153 4.252C39.561 4.252 39.897 4.576 39.897 4.996C39.897 5.404 39.561 5.74 39.153 5.74ZM38.601 13V7.132H39.729V13H38.601ZM42.4346 13H41.3066V7.132H42.3266L42.4466 8.032C42.8186 7.36 43.5626 6.964 44.3906 6.964C45.9386 6.964 46.6466 7.912 46.6466 9.412V13H45.5186V9.664C45.5186 8.476 44.9666 7.996 44.1026 7.996C43.0466 7.996 42.4346 8.752 42.4346 9.892V13ZM47.777 9.916C47.777 8.26 48.845 6.964 50.549 6.964C51.497 6.964 52.229 7.396 52.601 8.128L52.685 7.132H53.693V12.76C53.693 14.608 52.553 15.784 50.753 15.784C49.157 15.784 48.065 14.884 47.849 13.396H48.977C49.121 14.26 49.769 14.764 50.753 14.764C51.857 14.764 52.577 14.044 52.577 12.928V11.752C52.193 12.436 51.425 12.844 50.501 12.844C48.833 12.844 47.777 11.56 47.777 9.916ZM48.905 9.892C48.905 10.996 49.589 11.86 50.693 11.86C51.833 11.86 52.529 11.044 52.529 9.892C52.529 8.764 51.857 7.948 50.705 7.948C49.577 7.948 48.905 8.812 48.905 9.892Z" fill="#F56630"/>
</svg>
