<svg width="515" height="251" viewBox="0 0 515 251" fill="none" xmlns="http://www.w3.org/2000/svg">
<rect x="0.75" y="0.75" width="513.5" height="249.5" rx="15.25" fill="white"/>
<rect x="0.75" y="0.75" width="513.5" height="249.5" rx="15.25" stroke="#D0D5DD" stroke-width="1.5" stroke-dasharray="4 4"/>
<circle cx="257.5" cy="52" r="28" fill="#F0F2F5"/>
<path d="M250.5 49.0834C250.5 45.5395 253.373 42.6667 256.917 42.6667C260.056 42.6667 262.671 44.9221 263.225 47.9012C263.303 48.3189 263.601 48.6614 264.005 48.7951C266.327 49.5654 268 51.7556 268 54.3334C268 57.555 265.388 60.1667 262.167 60.1667C261.522 60.1667 261 60.689 261 61.3334C261 61.9777 261.522 62.5 262.167 62.5C266.677 62.5 270.333 58.8437 270.333 54.3334C270.333 50.9588 268.287 48.0648 265.371 46.8195C264.373 43.0844 260.967 40.3334 256.917 40.3334C252.084 40.3334 248.167 44.2509 248.167 49.0834C248.167 49.2004 248.169 49.3169 248.174 49.4328C246.079 50.6413 244.667 52.9047 244.667 55.5C244.667 59.366 247.801 62.5 251.667 62.5C252.311 62.5 252.833 61.9777 252.833 61.3334C252.833 60.689 252.311 60.1667 251.667 60.1667C249.089 60.1667 247 58.0774 247 55.5C247 53.5665 248.176 51.9049 249.857 51.197C250.343 50.9921 250.631 50.4864 250.56 49.9635C250.52 49.6763 250.5 49.3826 250.5 49.0834Z" fill="#475367"/>
<path d="M256.725 54.6281C257.167 54.2351 257.833 54.2351 258.275 54.6281L260.025 56.1836C260.507 56.6117 260.55 57.3491 260.122 57.8307C259.748 58.252 259.136 58.3379 258.667 58.0662V63.6667C258.667 64.311 258.144 64.8334 257.5 64.8334C256.856 64.8334 256.333 64.311 256.333 63.6667V58.0662C255.864 58.3379 255.253 58.252 254.878 57.8307C254.45 57.3491 254.493 56.6117 254.975 56.1836L256.725 54.6281Z" fill="#475367"/>
<g clip-path="url(#clip0_1_33075)">
<path d="M160.757 111.154C157.873 111.154 155.955 109.082 155.955 105.946C155.955 102.824 157.929 100.71 160.827 100.71C163.109 100.71 164.859 102.068 165.237 104.14H163.767C163.389 102.824 162.255 102.026 160.785 102.026C158.741 102.026 157.397 103.566 157.397 105.932C157.397 108.298 158.741 109.838 160.785 109.838C162.269 109.838 163.445 109.04 163.823 107.794H165.279C164.845 109.81 163.039 111.154 160.757 111.154ZM168.013 111H166.697V100.696H168.013V111ZM170.594 102.53C170.118 102.53 169.726 102.138 169.726 101.662C169.726 101.172 170.118 100.794 170.594 100.794C171.07 100.794 171.462 101.172 171.462 101.662C171.462 102.138 171.07 102.53 170.594 102.53ZM169.95 111V104.154H171.266V111H169.95ZM172.729 107.584C172.729 105.442 174.087 103.958 176.089 103.958C177.811 103.958 179.015 104.938 179.253 106.464H177.937C177.713 105.596 177.013 105.134 176.131 105.134C174.885 105.134 174.031 106.086 174.031 107.57C174.031 109.04 174.829 109.992 176.075 109.992C177.013 109.992 177.713 109.502 177.951 108.69H179.267C179.001 110.174 177.727 111.168 176.075 111.168C174.059 111.168 172.729 109.74 172.729 107.584ZM181.999 111H180.683V100.696H181.999V107.374L185.037 104.154H186.689L184.071 106.884L186.675 111H185.163L183.161 107.836L181.999 109.054V111ZM193.525 111H192.209V105.26H190.865V104.154H192.209V102.012H193.525V104.154H194.869V105.26H193.525V111ZM195.533 107.57C195.533 105.456 197.045 103.972 199.103 103.972C201.147 103.972 202.659 105.456 202.659 107.57C202.659 109.684 201.147 111.168 199.103 111.168C197.045 111.168 195.533 109.684 195.533 107.57ZM196.863 107.57C196.863 108.998 197.773 109.992 199.103 109.992C200.419 109.992 201.343 108.998 201.343 107.57C201.343 106.142 200.419 105.148 199.103 105.148C197.773 105.148 196.863 106.142 196.863 107.57ZM212.676 104.154H213.978V111H212.802L212.662 109.964C212.27 110.678 211.36 111.168 210.352 111.168C208.756 111.168 207.86 110.09 207.86 108.41V104.154H209.176V107.976C209.176 109.446 209.806 110.006 210.814 110.006C212.018 110.006 212.676 109.236 212.676 107.766V104.154ZM215.888 114.066V104.154H217.078L217.176 105.386C217.638 104.448 218.562 103.958 219.654 103.958C221.614 103.958 222.832 105.428 222.832 107.528C222.832 109.614 221.684 111.182 219.654 111.182C218.562 111.182 217.652 110.72 217.204 109.88V114.066H215.888ZM217.218 107.584C217.218 108.984 218.03 109.992 219.374 109.992C220.718 109.992 221.516 108.984 221.516 107.584C221.516 106.17 220.718 105.162 219.374 105.162C218.03 105.162 217.218 106.156 217.218 107.584ZM225.626 111H224.31V100.696H225.626V111ZM227.115 107.57C227.115 105.456 228.627 103.972 230.685 103.972C232.729 103.972 234.241 105.456 234.241 107.57C234.241 109.684 232.729 111.168 230.685 111.168C228.627 111.168 227.115 109.684 227.115 107.57ZM228.445 107.57C228.445 108.998 229.355 109.992 230.685 109.992C232.001 109.992 232.925 108.998 232.925 107.57C232.925 106.142 232.001 105.148 230.685 105.148C229.355 105.148 228.445 106.142 228.445 107.57ZM237.7 111.168C236.23 111.168 235.362 110.342 235.362 109.096C235.362 107.836 236.3 107.052 237.91 106.926L240.066 106.758V106.562C240.066 105.414 239.38 105.008 238.456 105.008C237.35 105.008 236.72 105.498 236.72 106.324H235.572C235.572 104.896 236.748 103.958 238.512 103.958C240.206 103.958 241.354 104.854 241.354 106.702V111H240.234L240.094 109.894C239.744 110.678 238.806 111.168 237.7 111.168ZM238.078 110.146C239.324 110.146 240.08 109.334 240.08 108.046V107.682L238.33 107.822C237.168 107.934 236.692 108.382 236.692 109.054C236.692 109.782 237.224 110.146 238.078 110.146ZM245.921 111.168C243.933 111.168 242.729 109.684 242.729 107.598C242.729 105.498 243.947 103.958 245.977 103.958C247.027 103.958 247.909 104.42 248.371 105.26V100.696H249.673V111H248.497L248.385 109.754C247.937 110.692 247.013 111.168 245.921 111.168ZM246.187 109.978C247.531 109.978 248.357 108.984 248.357 107.556C248.357 106.156 247.531 105.148 246.187 105.148C244.843 105.148 244.059 106.156 244.059 107.556C244.059 108.97 244.843 109.978 246.187 109.978Z" fill="#175CFF"/>
</g>
<path d="M255.532 107.612C255.532 105.54 256.988 104.042 258.976 104.042C260.964 104.042 262.42 105.54 262.42 107.612C262.42 109.67 260.964 111.168 258.976 111.168C256.988 111.168 255.532 109.67 255.532 107.612ZM256.512 107.598C256.512 109.194 257.52 110.3 258.976 110.3C260.418 110.3 261.44 109.194 261.44 107.598C261.44 106.03 260.418 104.91 258.976 104.91C257.52 104.91 256.512 106.03 256.512 107.598ZM267.507 104.14V105.008H266.975C265.729 105.008 264.931 105.848 264.931 107.136V111H263.965V104.224H264.875L264.945 105.274C265.211 104.546 265.925 104.07 266.877 104.07C267.087 104.07 267.269 104.084 267.507 104.14ZM275.334 111.168C273.36 111.168 272.198 109.656 272.198 107.626C272.198 105.582 273.36 104.042 275.376 104.042C276.496 104.042 277.392 104.532 277.868 105.512V100.794H278.834V111H277.994L277.896 109.614C277.42 110.664 276.468 111.168 275.334 111.168ZM275.502 110.286C276.986 110.286 277.854 109.166 277.854 107.598C277.854 106.044 276.986 104.91 275.502 104.91C274.032 104.91 273.178 106.044 273.178 107.598C273.178 109.166 274.032 110.286 275.502 110.286ZM284.392 104.14V105.008H283.86C282.614 105.008 281.816 105.848 281.816 107.136V111H280.85V104.224H281.76L281.83 105.274C282.096 104.546 282.81 104.07 283.762 104.07C283.972 104.07 284.154 104.084 284.392 104.14ZM287.349 111.168C285.907 111.168 285.053 110.356 285.053 109.166C285.053 107.92 286.005 107.136 287.587 107.01L289.827 106.828V106.604C289.827 105.274 289.029 104.854 288.035 104.854C286.859 104.854 286.159 105.386 286.159 106.296H285.277C285.277 104.924 286.397 104.042 288.063 104.042C289.631 104.042 290.779 104.826 290.779 106.618V111H289.967L289.841 109.81C289.421 110.664 288.497 111.168 287.349 111.168ZM287.573 110.384C289.001 110.384 289.827 109.39 289.827 107.92V107.556L287.825 107.71C286.551 107.822 286.033 108.382 286.033 109.138C286.033 109.964 286.649 110.384 287.573 110.384ZM292.255 107.416C292.255 105.568 293.445 104.042 295.433 104.042C296.609 104.042 297.505 104.588 297.939 105.582L298.037 104.224H298.877V110.79C298.877 112.806 297.589 114.122 295.601 114.122C293.865 114.122 292.647 113.142 292.381 111.504H293.347C293.557 112.596 294.397 113.24 295.615 113.24C297.001 113.24 297.925 112.302 297.925 110.888V109.278C297.463 110.23 296.525 110.79 295.363 110.79C293.431 110.79 292.255 109.264 292.255 107.416ZM293.221 107.402C293.221 108.788 294.075 109.922 295.503 109.922C296.973 109.922 297.841 108.858 297.841 107.402C297.841 105.96 297.001 104.896 295.517 104.896C294.061 104.896 293.221 106.03 293.221 107.402ZM306.722 111.168C305.28 111.168 304.426 110.356 304.426 109.166C304.426 107.92 305.378 107.136 306.96 107.01L309.2 106.828V106.604C309.2 105.274 308.402 104.854 307.408 104.854C306.232 104.854 305.532 105.386 305.532 106.296H304.65C304.65 104.924 305.77 104.042 307.436 104.042C309.004 104.042 310.152 104.826 310.152 106.618V111H309.34L309.214 109.81C308.794 110.664 307.87 111.168 306.722 111.168ZM306.946 110.384C308.374 110.384 309.2 109.39 309.2 107.92V107.556L307.198 107.71C305.924 107.822 305.406 108.382 305.406 109.138C305.406 109.964 306.022 110.384 306.946 110.384ZM313.056 111H312.09V104.224H312.93L313.07 105.4C313.518 104.532 314.414 104.042 315.394 104.042C317.256 104.042 318.026 105.148 318.026 106.856V111H317.06V107.066C317.06 105.484 316.346 104.924 315.226 104.924C313.84 104.924 313.056 105.932 313.056 107.458V111ZM322.611 111.168C320.637 111.168 319.475 109.656 319.475 107.626C319.475 105.582 320.637 104.042 322.653 104.042C323.773 104.042 324.669 104.532 325.145 105.512V100.794H326.111V111H325.271L325.173 109.614C324.697 110.664 323.745 111.168 322.611 111.168ZM322.779 110.286C324.263 110.286 325.131 109.166 325.131 107.598C325.131 106.044 324.263 104.91 322.779 104.91C321.309 104.91 320.455 106.044 320.455 107.598C320.455 109.166 321.309 110.286 322.779 110.286ZM334.67 111.168C332.696 111.168 331.534 109.656 331.534 107.626C331.534 105.582 332.696 104.042 334.712 104.042C335.832 104.042 336.728 104.532 337.204 105.512V100.794H338.17V111H337.33L337.232 109.614C336.756 110.664 335.804 111.168 334.67 111.168ZM334.838 110.286C336.322 110.286 337.19 109.166 337.19 107.598C337.19 106.044 336.322 104.91 334.838 104.91C333.368 104.91 332.514 106.044 332.514 107.598C332.514 109.166 333.368 110.286 334.838 110.286ZM343.728 104.14V105.008H343.196C341.95 105.008 341.152 105.848 341.152 107.136V111H340.186V104.224H341.096L341.166 105.274C341.432 104.546 342.146 104.07 343.098 104.07C343.308 104.07 343.49 104.084 343.728 104.14ZM344.276 107.612C344.276 105.54 345.732 104.042 347.72 104.042C349.708 104.042 351.164 105.54 351.164 107.612C351.164 109.67 349.708 111.168 347.72 111.168C345.732 111.168 344.276 109.67 344.276 107.612ZM345.256 107.598C345.256 109.194 346.264 110.3 347.72 110.3C349.162 110.3 350.184 109.194 350.184 107.598C350.184 106.03 349.162 104.91 347.72 104.91C346.264 104.91 345.256 106.03 345.256 107.598ZM352.709 113.954V104.224H353.549L353.647 105.596C354.123 104.546 355.075 104.042 356.209 104.042C358.169 104.042 359.345 105.54 359.345 107.584C359.345 109.628 358.211 111.168 356.209 111.168C355.061 111.168 354.151 110.678 353.675 109.698V113.954H352.709ZM353.689 107.612C353.689 109.166 354.557 110.3 356.041 110.3C357.511 110.3 358.365 109.166 358.365 107.612C358.365 106.044 357.511 104.924 356.041 104.924C354.557 104.924 353.689 106.044 353.689 107.612Z" fill="#475367"/>
<path d="M146.518 124.64C146.518 123.2 147.67 122.252 149.398 122.252C150.946 122.252 151.966 123.116 152.098 124.556H151.222C151.126 123.584 150.466 123.032 149.386 123.032C148.174 123.032 147.382 123.656 147.382 124.628C147.382 125.384 147.826 125.864 148.726 126.092L150.202 126.452C151.546 126.776 152.242 127.544 152.242 128.708C152.242 130.196 151.09 131.144 149.314 131.144C147.646 131.144 146.518 130.268 146.41 128.864H147.298C147.346 129.764 148.138 130.352 149.314 130.352C150.574 130.352 151.378 129.74 151.378 128.756C151.378 127.988 150.946 127.484 150.022 127.268L148.57 126.908C147.226 126.584 146.518 125.816 146.518 124.64ZM155.984 131L152.696 122.408H153.62L155.912 128.384C156.092 128.852 156.26 129.32 156.452 129.92C156.632 129.296 156.848 128.696 156.98 128.372L159.26 122.408H160.148L156.884 131H155.984ZM164.568 123.08C162.588 123.08 161.34 124.544 161.34 126.74C161.34 128.972 162.66 130.328 164.592 130.328C166.032 130.328 167.436 129.632 167.436 127.568V127.124H164.328V126.356H168.252V131.012H167.568L167.484 129.644C167.028 130.496 165.948 131.144 164.556 131.144C162.12 131.144 160.44 129.392 160.44 126.74C160.44 124.112 162.12 122.264 164.58 122.264C166.392 122.264 167.796 123.296 168.132 124.856H167.196C166.836 123.68 165.828 123.08 164.568 123.08ZM171.545 130.592C171.545 131.336 170.969 131.984 170.225 132.092V131.648C170.657 131.576 170.969 131.264 170.969 130.928C170.897 130.976 170.801 131.012 170.657 131.012C170.321 131.012 170.033 130.772 170.033 130.364C170.033 129.944 170.321 129.644 170.741 129.644C171.173 129.644 171.545 129.992 171.545 130.592ZM180.006 127.844H177.594V131H176.73V122.408H180.006C181.662 122.408 182.706 123.488 182.706 125.108C182.706 126.668 181.65 127.844 180.006 127.844ZM179.886 123.188H177.594V127.064H179.838C181.086 127.064 181.806 126.272 181.806 125.096C181.806 123.908 181.074 123.188 179.886 123.188ZM184.965 131H184.101V122.408H184.977L189.705 129.56V122.408H190.557V131H189.705L184.965 123.848V131ZM196.255 123.08C194.275 123.08 193.027 124.544 193.027 126.74C193.027 128.972 194.347 130.328 196.279 130.328C197.719 130.328 199.123 129.632 199.123 127.568V127.124H196.015V126.356H199.939V131.012H199.255L199.171 129.644C198.715 130.496 197.635 131.144 196.243 131.144C193.807 131.144 192.127 129.392 192.127 126.74C192.127 124.112 193.807 122.264 196.267 122.264C198.079 122.264 199.483 123.296 199.819 124.856H198.883C198.523 123.68 197.515 123.08 196.255 123.08ZM203.232 130.592C203.232 131.336 202.656 131.984 201.912 132.092V131.648C202.344 131.576 202.656 131.264 202.656 130.928C202.584 130.976 202.488 131.012 202.344 131.012C202.008 131.012 201.72 130.772 201.72 130.364C201.72 129.944 202.008 129.644 202.428 129.644C202.86 129.644 203.232 129.992 203.232 130.592ZM207.613 128.636V128.3H208.453V128.636C208.453 129.656 209.005 130.328 210.049 130.328C211.141 130.328 211.645 129.644 211.645 128.624V122.408H212.509V128.648C212.509 130.208 211.501 131.144 210.049 131.144C208.501 131.144 207.613 130.124 207.613 128.636ZM217.81 127.844H215.398V131H214.534V122.408H217.81C219.466 122.408 220.51 123.488 220.51 125.108C220.51 126.668 219.454 127.844 217.81 127.844ZM217.69 123.188H215.398V127.064H217.642C218.89 127.064 219.61 126.272 219.61 125.096C219.61 123.908 218.878 123.188 217.69 123.188ZM225.505 123.08C223.525 123.08 222.277 124.544 222.277 126.74C222.277 128.972 223.597 130.328 225.529 130.328C226.969 130.328 228.373 129.632 228.373 127.568V127.124H225.265V126.356H229.189V131.012H228.505L228.421 129.644C227.965 130.496 226.885 131.144 225.493 131.144C223.057 131.144 221.377 129.392 221.377 126.74C221.377 124.112 223.057 122.264 225.517 122.264C227.329 122.264 228.733 123.296 229.069 124.856H228.133C227.773 123.68 226.765 123.08 225.505 123.08ZM233.645 128.096C233.645 126.32 234.893 125.036 236.597 125.036C238.301 125.036 239.549 126.32 239.549 128.096C239.549 129.86 238.301 131.144 236.597 131.144C234.893 131.144 233.645 129.86 233.645 128.096ZM234.485 128.084C234.485 129.452 235.349 130.4 236.597 130.4C237.833 130.4 238.709 129.452 238.709 128.084C238.709 126.74 237.833 125.78 236.597 125.78C235.349 125.78 234.485 126.74 234.485 128.084ZM243.91 125.12V125.864H243.454C242.386 125.864 241.702 126.584 241.702 127.688V131H240.874V125.192H241.654L241.714 126.092C241.942 125.468 242.554 125.06 243.37 125.06C243.55 125.06 243.706 125.072 243.91 125.12ZM252.119 123.08C250.139 123.08 248.891 124.544 248.891 126.74C248.891 128.972 250.211 130.328 252.143 130.328C253.583 130.328 254.987 129.632 254.987 127.568V127.124H251.879V126.356H255.803V131.012H255.119L255.035 129.644C254.579 130.496 253.499 131.144 252.107 131.144C249.671 131.144 247.991 129.392 247.991 126.74C247.991 124.112 249.671 122.264 252.131 122.264C253.943 122.264 255.347 123.296 255.683 124.856H254.747C254.387 123.68 253.379 123.08 252.119 123.08ZM258.383 122.408V131H257.519V122.408H258.383ZM264.852 127.22H261.336V131H260.472V122.408H265.536V123.2H261.336V126.44H264.852V127.22ZM272.319 132.884H271.563C270.555 131.504 269.895 129.464 269.895 127.4C269.895 125.42 270.531 123.356 271.563 121.928H272.319C271.395 123.224 270.747 125.24 270.747 127.4C270.747 129.512 271.371 131.564 272.319 132.884ZM274.01 131H273.182V125.192H273.902L273.998 126.02C274.286 125.408 274.934 125.036 275.75 125.036C276.662 125.036 277.346 125.516 277.622 126.272C277.886 125.516 278.594 125.036 279.53 125.036C280.79 125.036 281.618 125.852 281.618 127.196V131H280.814V127.364C280.814 126.368 280.262 125.78 279.374 125.78C278.402 125.78 277.826 126.512 277.826 127.412V131H277.01V127.352C277.01 126.368 276.446 125.792 275.57 125.792C274.598 125.792 274.01 126.512 274.01 127.4V131ZM284.952 131.144C283.716 131.144 282.984 130.448 282.984 129.428C282.984 128.36 283.8 127.688 285.156 127.58L287.076 127.424V127.232C287.076 126.092 286.392 125.732 285.54 125.732C284.532 125.732 283.932 126.188 283.932 126.968H283.176C283.176 125.792 284.136 125.036 285.564 125.036C286.908 125.036 287.892 125.708 287.892 127.244V131H287.196L287.088 129.98C286.728 130.712 285.936 131.144 284.952 131.144ZM285.144 130.472C286.368 130.472 287.076 129.62 287.076 128.36V128.048L285.36 128.18C284.268 128.276 283.824 128.756 283.824 129.404C283.824 130.112 284.352 130.472 285.144 130.472ZM289.781 131H288.809L290.885 128.096L288.821 125.192H289.793L291.437 127.52L293.069 125.192H294.029L291.965 128.108L294.017 131H293.033L291.401 128.672L289.781 131ZM295.699 131.132C295.291 131.132 294.943 130.796 294.943 130.4C294.943 129.992 295.291 129.644 295.699 129.644C296.107 129.644 296.455 129.992 296.455 130.4C296.455 130.796 296.107 131.132 295.699 131.132ZM301.208 128.66C301.208 127.604 301.844 126.764 302.864 126.416C302 126.068 301.508 125.36 301.508 124.472C301.508 123.152 302.636 122.252 304.28 122.252C305.912 122.252 307.004 123.152 307.004 124.484C307.004 125.384 306.524 126.092 305.672 126.416C306.668 126.728 307.328 127.592 307.328 128.672C307.328 130.136 306.092 131.144 304.268 131.144C302.444 131.144 301.208 130.136 301.208 128.66ZM302.324 124.496C302.324 125.444 303.092 126.08 304.268 126.08C305.432 126.08 306.188 125.468 306.188 124.52C306.188 123.596 305.432 123.02 304.268 123.02C303.092 123.02 302.324 123.596 302.324 124.496ZM302.06 128.588C302.06 129.656 302.948 130.364 304.28 130.364C305.588 130.364 306.476 129.656 306.476 128.588C306.476 127.532 305.612 126.848 304.256 126.848C302.924 126.848 302.06 127.532 302.06 128.588ZM308.603 126.704C308.603 124.04 309.911 122.24 312.047 122.24C314.171 122.24 315.479 124.04 315.479 126.704C315.479 129.38 314.195 131.156 312.047 131.156C309.887 131.156 308.603 129.38 308.603 126.704ZM309.455 126.704C309.455 128.936 310.403 130.376 312.047 130.376C313.691 130.376 314.639 128.936 314.639 126.704C314.639 124.46 313.691 123.032 312.047 123.032C310.403 123.032 309.455 124.46 309.455 126.704ZM316.795 126.704C316.795 124.04 318.103 122.24 320.239 122.24C322.363 122.24 323.671 124.04 323.671 126.704C323.671 129.38 322.387 131.156 320.239 131.156C318.079 131.156 316.795 129.38 316.795 126.704ZM317.647 126.704C317.647 128.936 318.595 130.376 320.239 130.376C321.883 130.376 322.831 128.936 322.831 126.704C322.831 124.46 321.883 123.032 320.239 123.032C318.595 123.032 317.647 124.46 317.647 126.704ZM325.418 131H324.446L326.522 128.096L324.458 125.192H325.43L327.074 127.52L328.706 125.192H329.666L327.602 128.108L329.654 131H328.67L327.038 128.672L325.418 131ZM336.627 129.176H335.619V131H334.779V129.176H330.267V128.408L334.467 122.408H335.619V128.408H336.627V129.176ZM331.203 128.408H334.779V123.296L331.203 128.408ZM337.971 126.704C337.971 124.04 339.279 122.24 341.415 122.24C343.539 122.24 344.847 124.04 344.847 126.704C344.847 129.38 343.563 131.156 341.415 131.156C339.255 131.156 337.971 129.38 337.971 126.704ZM338.823 126.704C338.823 128.936 339.771 130.376 341.415 130.376C343.059 130.376 344.007 128.936 344.007 126.704C344.007 124.46 343.059 123.032 341.415 123.032C339.771 123.032 338.823 124.46 338.823 126.704ZM346.162 126.704C346.162 124.04 347.47 122.24 349.606 122.24C351.73 122.24 353.038 124.04 353.038 126.704C353.038 129.38 351.754 131.156 349.606 131.156C347.446 131.156 346.162 129.38 346.162 126.704ZM347.014 126.704C347.014 128.936 347.962 130.376 349.606 130.376C351.25 130.376 352.198 128.936 352.198 126.704C352.198 124.46 351.25 123.032 349.606 123.032C347.962 123.032 347.014 124.46 347.014 126.704ZM354.557 133.532V125.192H355.277L355.361 126.368C355.769 125.468 356.585 125.036 357.557 125.036C359.237 125.036 360.245 126.32 360.245 128.072C360.245 129.824 359.273 131.144 357.557 131.144C356.573 131.144 355.793 130.724 355.385 129.884V133.532H354.557ZM355.397 128.096C355.397 129.428 356.141 130.4 357.413 130.4C358.673 130.4 359.405 129.428 359.405 128.096C359.405 126.752 358.673 125.792 357.413 125.792C356.141 125.792 355.397 126.752 355.397 128.096ZM361.594 131H360.622L362.698 128.096L360.634 125.192H361.606L363.25 127.52L364.882 125.192H365.842L363.778 128.108L365.83 131H364.846L363.214 128.672L361.594 131ZM366.719 132.884H365.963C366.911 131.564 367.547 129.512 367.547 127.4C367.547 125.24 366.887 123.224 365.963 121.928H366.719C367.763 123.356 368.387 125.42 368.387 127.4C368.387 129.464 367.727 131.504 366.719 132.884Z" fill="#98A2B3"/>
<rect x="136" y="163" width="243" height="1" fill="#F0F2F5"/>
<rect width="34" height="17" transform="translate(240.5 154.5)" fill="white"/>
<path d="M257.74 163.108C257.74 165.772 255.988 167.644 253.468 167.644C250.96 167.644 249.232 165.784 249.232 163.108C249.232 160.444 250.972 158.572 253.48 158.572C255.988 158.572 257.74 160.432 257.74 163.108ZM256.12 163.108C256.12 161.236 255.088 160.048 253.48 160.048C251.872 160.048 250.84 161.236 250.84 163.108C250.84 164.98 251.872 166.168 253.48 166.168C255.088 166.168 256.12 164.956 256.12 163.108ZM260.705 167.5H259.169V158.728H262.517C264.509 158.728 265.673 159.736 265.673 161.464C265.673 162.64 265.121 163.48 264.089 163.9L265.757 167.5H264.077L262.589 164.224H260.705V167.5ZM260.705 160.096V162.868H262.517C263.489 162.868 264.065 162.352 264.065 161.464C264.065 160.588 263.489 160.096 262.517 160.096H260.705Z" fill="#98A2B3"/>
<rect x="201.75" y="191.75" width="111.5" height="34.5" rx="7.25" stroke="#175CFF" stroke-width="1.5"/>
<path d="M218.316 214V203.766H222.39C224.406 203.766 225.638 204.816 225.638 206.524C225.638 207.658 225.134 208.47 224.168 208.876C225.246 209.226 225.792 210.038 225.792 211.228C225.792 212.978 224.574 214 222.46 214H218.316ZM222.236 205.348H220.108V208.134H222.278C223.258 208.134 223.804 207.616 223.804 206.706C223.804 205.824 223.244 205.348 222.236 205.348ZM222.39 209.646H220.108V212.418H222.39C223.398 212.418 223.958 211.928 223.958 211.004C223.958 210.136 223.384 209.646 222.39 209.646ZM231.523 207.056V208.638H230.893C229.661 208.638 228.891 209.296 228.891 210.64V214H227.183V207.098H228.793L228.891 208.106C229.185 207.42 229.843 206.958 230.767 206.958C231.005 206.958 231.243 206.986 231.523 207.056ZM232.04 210.528C232.04 208.372 233.594 206.888 235.736 206.888C237.878 206.888 239.432 208.372 239.432 210.528C239.432 212.684 237.878 214.168 235.736 214.168C233.594 214.168 232.04 212.684 232.04 210.528ZM233.748 210.528C233.748 211.788 234.56 212.642 235.736 212.642C236.912 212.642 237.724 211.788 237.724 210.528C237.724 209.268 236.912 208.414 235.736 208.414C234.56 208.414 233.748 209.268 233.748 210.528ZM241.971 214L239.731 207.084H241.509L242.419 210.052C242.573 210.598 242.713 211.2 242.839 211.844C242.965 211.172 243.091 210.738 243.315 210.052L244.267 207.084H246.003L246.927 210.052C247.011 210.332 247.291 211.368 247.375 211.83C247.487 211.312 247.711 210.486 247.837 210.052L248.761 207.084H250.567L248.173 214H246.577L245.625 211.004C245.345 210.094 245.191 209.436 245.135 209.086C245.065 209.408 244.939 209.898 244.589 211.032L243.637 214H241.971ZM250.918 211.9H252.542C252.556 212.502 253.004 212.88 253.788 212.88C254.586 212.88 255.02 212.558 255.02 212.054C255.02 211.704 254.838 211.452 254.222 211.312L252.976 211.018C251.73 210.738 251.128 210.15 251.128 209.044C251.128 207.686 252.276 206.874 253.872 206.874C255.426 206.874 256.476 207.77 256.49 209.114H254.866C254.852 208.526 254.46 208.148 253.802 208.148C253.13 208.148 252.738 208.456 252.738 208.974C252.738 209.366 253.046 209.618 253.634 209.758L254.88 210.052C256.042 210.318 256.63 210.85 256.63 211.914C256.63 213.314 255.44 214.182 253.732 214.182C252.01 214.182 250.918 213.258 250.918 211.9ZM261.025 214.182C258.967 214.182 257.525 212.684 257.525 210.542C257.525 208.372 258.939 206.874 260.969 206.874C263.041 206.874 264.357 208.26 264.357 210.416V210.934L259.149 210.948C259.275 212.166 259.919 212.782 261.053 212.782C261.991 212.782 262.607 212.418 262.803 211.76H264.385C264.091 213.272 262.831 214.182 261.025 214.182ZM260.983 208.274C259.975 208.274 259.359 208.82 259.191 209.856H262.663C262.663 208.904 262.005 208.274 260.983 208.274ZM275.349 209.814H271.541V214H269.749V203.766H276.077V205.418H271.541V208.204H275.349V209.814ZM278.295 205.698C277.707 205.698 277.245 205.236 277.245 204.662C277.245 204.088 277.707 203.64 278.295 203.64C278.855 203.64 279.317 204.088 279.317 204.662C279.317 205.236 278.855 205.698 278.295 205.698ZM277.441 214V207.084H279.149V214H277.441ZM282.635 214H280.941V203.584H282.635V214ZM287.521 214.182C285.463 214.182 284.021 212.684 284.021 210.542C284.021 208.372 285.435 206.874 287.465 206.874C289.537 206.874 290.853 208.26 290.853 210.416V210.934L285.645 210.948C285.771 212.166 286.415 212.782 287.549 212.782C288.487 212.782 289.103 212.418 289.299 211.76H290.881C290.587 213.272 289.327 214.182 287.521 214.182ZM287.479 208.274C286.471 208.274 285.855 208.82 285.687 209.856H289.159C289.159 208.904 288.501 208.274 287.479 208.274ZM291.688 211.9H293.312C293.326 212.502 293.774 212.88 294.558 212.88C295.356 212.88 295.79 212.558 295.79 212.054C295.79 211.704 295.608 211.452 294.992 211.312L293.746 211.018C292.5 210.738 291.898 210.15 291.898 209.044C291.898 207.686 293.046 206.874 294.642 206.874C296.196 206.874 297.246 207.77 297.26 209.114H295.636C295.622 208.526 295.23 208.148 294.572 208.148C293.9 208.148 293.508 208.456 293.508 208.974C293.508 209.366 293.816 209.618 294.404 209.758L295.65 210.052C296.812 210.318 297.4 210.85 297.4 211.914C297.4 213.314 296.21 214.182 294.502 214.182C292.78 214.182 291.688 213.258 291.688 211.9Z" fill="#175CFF"/>
<defs>
<clipPath id="clip0_1_33075">
<rect x="155" y="96" width="96" height="20" rx="8" fill="white"/>
</clipPath>
</defs>
</svg>
