<svg width="60" height="20" viewBox="0 0 60 20" fill="none" xmlns="http://www.w3.org/2000/svg">
<path d="M6.59738 11.1423C5.99338 10.5005 5.99338 9.49947 6.59738 8.85772L12.7265 2.34553C13.0419 2.01038 13.5693 1.9944 13.9045 2.30983C14.2396 2.62526 14.2556 3.15266 13.9402 3.4878L7.81105 10L13.9402 16.5122C14.2556 16.8473 14.2396 17.3747 13.9045 17.6902C13.5693 18.0056 13.0419 17.9896 12.7265 17.6545L6.59738 11.1423Z" fill="#667185"/>
<path d="M29.6721 15V4.878H33.5361C35.5101 4.878 36.7141 5.886 36.7141 7.552C36.7141 8.714 36.2101 9.498 35.2021 9.918C36.3221 10.282 36.8961 11.094 36.8961 12.298C36.8961 13.978 35.6781 15 33.6761 15H29.6721ZM33.4521 6.096H31.0441V9.344H33.5361C34.6701 9.344 35.3141 8.728 35.3141 7.678C35.3141 6.67 34.6421 6.096 33.4521 6.096ZM33.6481 10.534H31.0441V13.782H33.6481C34.8241 13.782 35.4821 13.18 35.4821 12.13C35.4821 11.122 34.8101 10.534 33.6481 10.534ZM40.3915 15.168C38.9215 15.168 38.0535 14.342 38.0535 13.096C38.0535 11.836 38.9915 11.052 40.6015 10.926L42.7575 10.758V10.562C42.7575 9.414 42.0715 9.008 41.1475 9.008C40.0415 9.008 39.4115 9.498 39.4115 10.324H38.2635C38.2635 8.896 39.4395 7.958 41.2035 7.958C42.8975 7.958 44.0455 8.854 44.0455 10.702V15H42.9255L42.7855 13.894C42.4355 14.678 41.4975 15.168 40.3915 15.168ZM40.7695 14.146C42.0155 14.146 42.7715 13.334 42.7715 12.046V11.682L41.0215 11.822C39.8595 11.934 39.3835 12.382 39.3835 13.054C39.3835 13.782 39.9155 14.146 40.7695 14.146ZM45.42 11.584C45.42 9.442 46.778 7.958 48.78 7.958C50.502 7.958 51.706 8.938 51.944 10.464H50.628C50.404 9.596 49.704 9.134 48.822 9.134C47.576 9.134 46.722 10.086 46.722 11.57C46.722 13.04 47.52 13.992 48.766 13.992C49.704 13.992 50.404 13.502 50.642 12.69H51.958C51.692 14.174 50.418 15.168 48.766 15.168C46.75 15.168 45.42 13.74 45.42 11.584ZM54.6905 15H53.3745V4.696H54.6905V11.374L57.7285 8.154H59.3805L56.7625 10.884L59.3665 15H57.8545L55.8525 11.836L54.6905 13.054V15Z" fill="#667185"/>
</svg>
