<svg width="36" height="36" viewBox="0 0 36 36" fill="none" xmlns="http://www.w3.org/2000/svg">
<rect x="1.25" y="1.25" width="33.5" height="33.5" rx="16.75" fill="#FFECE5" stroke="white" stroke-width="1.5"/>
<path d="M9.23605 20.116V19.514H10.9581V20.116C10.9581 20.9 11.3921 21.516 12.4001 21.516C13.4081 21.516 13.8281 20.942 13.8281 20.046V12.766H15.6201V20.144C15.6201 21.95 14.3601 23.182 12.4141 23.182C10.3141 23.182 9.23605 21.88 9.23605 20.116ZM21.4967 23H17.8147V12.766H21.3987C24.4227 12.766 26.5087 14.852 26.5087 17.904C26.5087 20.914 24.4647 23 21.4967 23ZM21.2307 14.418H19.6067V21.348H21.3287C23.3727 21.348 24.6187 20.032 24.6187 17.904C24.6187 15.734 23.3447 14.418 21.2307 14.418Z" fill="#101928"/>
</svg>
