<svg width="30" height="18" viewBox="0 0 30 18" fill="none" xmlns="http://www.w3.org/2000/svg">
<rect y="0.5" width="30" height="17" rx="8.5" fill="#175CFF"/>
<path d="M12.4716 4.77273V13.5H11.1506V6.09375H11.0994L9.01136 7.45739V6.19602L11.1889 4.77273H12.4716ZM17.8107 13.6449C17.1374 13.642 16.5622 13.4645 16.0849 13.1122C15.6076 12.7599 15.2426 12.2472 14.9897 11.5739C14.7369 10.9006 14.6104 10.0895 14.6104 9.14062C14.6104 8.1946 14.7369 7.38636 14.9897 6.71591C15.2454 6.04545 15.6119 5.53409 16.0891 5.18182C16.5693 4.82955 17.1431 4.65341 17.8107 4.65341C18.4783 4.65341 19.0508 4.83097 19.5281 5.18608C20.0053 5.53835 20.3704 6.04972 20.6232 6.72017C20.8789 7.38778 21.0068 8.1946 21.0068 9.14062C21.0068 10.0923 20.8803 10.9048 20.6275 11.5781C20.3747 12.2486 20.0096 12.7614 19.5323 13.1165C19.0551 13.4688 18.4812 13.6449 17.8107 13.6449ZM17.8107 12.5071C18.4016 12.5071 18.8633 12.2188 19.1957 11.642C19.5309 11.0653 19.6985 10.2315 19.6985 9.14062C19.6985 8.41619 19.6218 7.80398 19.4684 7.30398C19.3178 6.80114 19.1005 6.42045 18.8164 6.16193C18.5352 5.90057 18.1999 5.76989 17.8107 5.76989C17.2227 5.76989 16.761 6.05966 16.4258 6.6392C16.0906 7.21875 15.9215 8.05256 15.9187 9.14062C15.9187 9.8679 15.994 10.483 16.1445 10.9858C16.2979 11.4858 16.5153 11.8651 16.7965 12.1236C17.0778 12.3793 17.4158 12.5071 17.8107 12.5071Z" fill="white"/>
</svg>
