<svg width="384" height="48" viewBox="0 0 384 48" fill="none" xmlns="http://www.w3.org/2000/svg">
<mask id="path-1-inside-1_1309_692" fill="white">
<path d="M0 4C0 1.79086 1.79086 0 4 0H380C382.209 0 384 1.79086 384 4V44C384 46.2091 382.209 48 380 48H4.00001C1.79087 48 0 46.2091 0 44V4Z"/>
</mask>
<path d="M0 4C0 1.23858 2.23858 -1 5 -1H380C382.761 -1 385 1.23858 385 4H383C383 2.34315 381.657 1 380 1H4C1.79086 1 0 2.34315 0 4ZM385 44C385 46.7614 382.761 49 380 49H5C2.23858 49 0 46.7614 0 44C0 45.6569 1.79086 47 4 47H380C381.657 47 383 45.6569 383 44H385ZM0 48V0V48ZM380 -1C382.761 -1 385 1.23858 385 4V44C385 46.7614 382.761 49 380 49V47C381.657 47 383 45.6569 383 44V4C383 2.34315 381.657 1 380 1V-1Z" fill="#E4E7EC" mask="url(#path-1-inside-1_1309_692)"/>
<rect x="16.5" y="12.5" width="23" height="23" rx="7.5" fill="#E7F6EC"/>
<rect x="16.5" y="12.5" width="23" height="23" rx="7.5" stroke="#B5E3C4"/>
<path fill-rule="evenodd" clip-rule="evenodd" d="M28 28.5C30.4853 28.5 32.5 26.4853 32.5 24C32.5 21.5147 30.4853 19.5 28 19.5C25.5147 19.5 23.5 21.5147 23.5 24C23.5 26.4853 25.5147 28.5 28 28.5ZM29.8377 23.3687C30.0413 23.1822 30.0552 22.8659 29.8687 22.6623C29.6822 22.4587 29.3659 22.4448 29.1623 22.6313L27.3163 24.322L26.8377 23.8837C26.6341 23.6972 26.3178 23.7111 26.1313 23.9147C25.9448 24.1184 25.9587 24.4346 26.1623 24.6211L26.9786 25.3687C27.1697 25.5438 27.4628 25.5438 27.654 25.3687L29.8377 23.3687Z" fill="#04802E"/>
<path d="M54.926 27H53.134V16.766H57.04C59.364 16.766 60.722 17.942 60.722 19.958C60.722 21.33 60.078 22.31 58.874 22.8L60.82 27H58.86L57.124 23.178H54.926V27ZM54.926 18.362V21.596H57.04C58.174 21.596 58.846 20.994 58.846 19.958C58.846 18.936 58.174 18.362 57.04 18.362H54.926ZM68.1129 22.814H64.3049V27H62.5129V16.766H68.8409V18.418H64.3049V21.204H68.1129V22.814ZM78.4923 27.77L77.3723 26.51C76.6443 26.93 75.7763 27.168 74.8103 27.168C71.8843 27.168 69.8683 24.998 69.8683 21.876C69.8683 18.768 71.8983 16.584 74.8243 16.584C77.7503 16.584 79.7943 18.754 79.7943 21.876C79.7943 23.346 79.3463 24.606 78.5483 25.53L79.6403 26.748L78.4923 27.77ZM77.9043 21.876C77.9043 19.692 76.7003 18.306 74.8243 18.306C72.9483 18.306 71.7443 19.692 71.7443 21.876C71.7443 24.06 72.9483 25.446 74.8243 25.446C75.3283 25.446 75.7763 25.348 76.1823 25.152L74.8243 23.626L75.9583 22.604L77.3163 24.13C77.6943 23.542 77.9043 22.772 77.9043 21.876ZM87.0276 16.766V27H85.2356V16.766H87.0276ZM92.9781 27H89.2961V16.766H92.8801C95.9041 16.766 97.9901 18.852 97.9901 21.904C97.9901 24.914 95.9461 27 92.9781 27ZM92.7121 18.418H91.0881V25.348H92.8101C94.8541 25.348 96.1001 24.032 96.1001 21.904C96.1001 19.734 94.8261 18.418 92.7121 18.418ZM102.649 24.9H104.273C104.287 25.502 104.735 25.88 105.519 25.88C106.317 25.88 106.751 25.558 106.751 25.054C106.751 24.704 106.569 24.452 105.953 24.312L104.707 24.018C103.461 23.738 102.859 23.15 102.859 22.044C102.859 20.686 104.007 19.874 105.603 19.874C107.157 19.874 108.207 20.77 108.221 22.114H106.597C106.583 21.526 106.191 21.148 105.533 21.148C104.861 21.148 104.469 21.456 104.469 21.974C104.469 22.366 104.777 22.618 105.365 22.758L106.611 23.052C107.773 23.318 108.361 23.85 108.361 24.914C108.361 26.314 107.171 27.182 105.463 27.182C103.741 27.182 102.649 26.258 102.649 24.9ZM112.755 27.182C110.697 27.182 109.255 25.684 109.255 23.542C109.255 21.372 110.669 19.874 112.699 19.874C114.771 19.874 116.087 21.26 116.087 23.416V23.934L110.879 23.948C111.005 25.166 111.649 25.782 112.783 25.782C113.721 25.782 114.337 25.418 114.533 24.76H116.115C115.821 26.272 114.561 27.182 112.755 27.182ZM112.713 21.274C111.705 21.274 111.089 21.82 110.921 22.856H114.393C114.393 21.904 113.735 21.274 112.713 21.274ZM119.162 27H117.454V20.084H119.036L119.176 20.98C119.61 20.28 120.45 19.874 121.388 19.874C123.124 19.874 124.02 20.952 124.02 22.744V27H122.312V23.15C122.312 21.988 121.738 21.428 120.856 21.428C119.806 21.428 119.162 22.156 119.162 23.276V27ZM128.05 27H126.342V21.512H125.012V20.084H126.342V17.928H128.05V20.084H129.394V21.512H128.05V27ZM133.698 24.9H135.322C135.336 25.502 135.784 25.88 136.568 25.88C137.366 25.88 137.8 25.558 137.8 25.054C137.8 24.704 137.618 24.452 137.002 24.312L135.756 24.018C134.51 23.738 133.908 23.15 133.908 22.044C133.908 20.686 135.056 19.874 136.652 19.874C138.206 19.874 139.256 20.77 139.27 22.114H137.646C137.632 21.526 137.24 21.148 136.582 21.148C135.91 21.148 135.518 21.456 135.518 21.974C135.518 22.366 135.826 22.618 136.414 22.758L137.66 23.052C138.822 23.318 139.41 23.85 139.41 24.914C139.41 26.314 138.22 27.182 136.512 27.182C134.79 27.182 133.698 26.258 133.698 24.9ZM145.4 20.084H147.108V27H145.526L145.4 26.076C144.98 26.734 144.084 27.182 143.16 27.182C141.564 27.182 140.626 26.104 140.626 24.41V20.084H142.334V23.808C142.334 25.124 142.852 25.656 143.804 25.656C144.882 25.656 145.4 25.026 145.4 23.71V20.084ZM148.33 23.528C148.33 21.386 149.744 19.874 151.788 19.874C153.678 19.874 154.966 20.924 155.148 22.59H153.44C153.244 21.806 152.67 21.4 151.858 21.4C150.766 21.4 150.038 22.226 150.038 23.528C150.038 24.83 150.71 25.642 151.802 25.642C152.656 25.642 153.258 25.222 153.44 24.466H155.162C154.952 26.076 153.608 27.182 151.802 27.182C149.702 27.182 148.33 25.726 148.33 23.528ZM156.027 23.528C156.027 21.386 157.441 19.874 159.485 19.874C161.375 19.874 162.663 20.924 162.845 22.59H161.137C160.941 21.806 160.367 21.4 159.555 21.4C158.463 21.4 157.735 22.226 157.735 23.528C157.735 24.83 158.407 25.642 159.499 25.642C160.353 25.642 160.955 25.222 161.137 24.466H162.859C162.649 26.076 161.305 27.182 159.499 27.182C157.399 27.182 156.027 25.726 156.027 23.528ZM167.224 27.182C165.166 27.182 163.724 25.684 163.724 23.542C163.724 21.372 165.138 19.874 167.168 19.874C169.24 19.874 170.556 21.26 170.556 23.416V23.934L165.348 23.948C165.474 25.166 166.118 25.782 167.252 25.782C168.19 25.782 168.806 25.418 169.002 24.76H170.584C170.29 26.272 169.03 27.182 167.224 27.182ZM167.182 21.274C166.174 21.274 165.558 21.82 165.39 22.856H168.862C168.862 21.904 168.204 21.274 167.182 21.274ZM171.391 24.9H173.015C173.029 25.502 173.477 25.88 174.261 25.88C175.059 25.88 175.493 25.558 175.493 25.054C175.493 24.704 175.311 24.452 174.695 24.312L173.449 24.018C172.203 23.738 171.601 23.15 171.601 22.044C171.601 20.686 172.749 19.874 174.345 19.874C175.899 19.874 176.949 20.77 176.963 22.114H175.339C175.325 21.526 174.933 21.148 174.275 21.148C173.603 21.148 173.211 21.456 173.211 21.974C173.211 22.366 173.519 22.618 174.107 22.758L175.353 23.052C176.515 23.318 177.103 23.85 177.103 24.914C177.103 26.314 175.913 27.182 174.205 27.182C172.483 27.182 171.391 26.258 171.391 24.9ZM177.871 24.9H179.495C179.509 25.502 179.957 25.88 180.741 25.88C181.539 25.88 181.973 25.558 181.973 25.054C181.973 24.704 181.791 24.452 181.175 24.312L179.929 24.018C178.683 23.738 178.081 23.15 178.081 22.044C178.081 20.686 179.229 19.874 180.825 19.874C182.379 19.874 183.429 20.77 183.443 22.114H181.819C181.805 21.526 181.413 21.148 180.755 21.148C180.083 21.148 179.691 21.456 179.691 21.974C179.691 22.366 179.999 22.618 180.587 22.758L181.833 23.052C182.995 23.318 183.583 23.85 183.583 24.914C183.583 26.314 182.393 27.182 180.685 27.182C178.963 27.182 177.871 26.258 177.871 24.9ZM184.198 20.084H185.192V19.244C185.192 17.368 186.186 16.584 187.684 16.584C187.95 16.584 188.272 16.598 188.566 16.654V18.11H187.964C187.096 18.11 186.886 18.558 186.886 19.244V20.084H188.538V21.512H186.886V27H185.192V21.512H184.198V20.084ZM194.318 20.084H196.026V27H194.444L194.318 26.076C193.898 26.734 193.002 27.182 192.078 27.182C190.482 27.182 189.544 26.104 189.544 24.41V20.084H191.252V23.808C191.252 25.124 191.77 25.656 192.722 25.656C193.8 25.656 194.318 25.026 194.318 23.71V20.084ZM199.512 27H197.818V16.584H199.512V27ZM203.026 27H201.332V16.584H203.026V27ZM204.216 30.206V28.778H205.238C205.91 28.778 206.33 28.624 206.624 27.812L206.82 27.294L204.034 20.084H205.84L207.618 25.124L209.494 20.084H211.258L207.87 28.54C207.352 29.828 206.624 30.36 205.49 30.36C205.014 30.36 204.594 30.304 204.216 30.206ZM214.258 23.934H212.886C212.704 22.814 212.578 20.938 212.578 19.118V16.766H214.594V19.118C214.594 20.98 214.454 22.856 214.258 23.934ZM213.586 27.182C212.956 27.182 212.438 26.678 212.438 26.076C212.438 25.46 212.956 24.956 213.586 24.956C214.188 24.956 214.706 25.46 214.706 26.076C214.706 26.678 214.188 27.182 213.586 27.182Z" fill="#101928"/>
<rect x="335" y="36" width="24" height="1" transform="rotate(-90 335 36)" fill="#F0F2F5"/>
<path d="M353.876 16.6967C353.55 16.3713 353.023 16.3713 352.697 16.6967C352.372 17.0222 352.372 17.5498 352.697 17.8752L356.822 22L352.697 26.1248C352.372 26.4502 352.372 26.9779 352.697 27.3033C353.023 27.6288 353.55 27.6288 353.876 27.3033L358.001 23.1785L362.125 27.3033C362.451 27.6288 362.978 27.6288 363.304 27.3033C363.629 26.9779 363.629 26.4502 363.304 26.1248L359.179 22L363.304 17.8752C363.629 17.5498 363.629 17.0222 363.304 16.6967C362.978 16.3713 362.451 16.3713 362.125 16.6967L358.001 20.8215L353.876 16.6967Z" fill="black"/>
</svg>
